<?xml version="1.0" encoding="utf-8"?>
<!-- Generator: Adobe Illustrator 24.0.3, SVG Export Plug-In . SVG Version: 6.00 Build 0)  -->
<svg version="1.1" id="Calque_1" xmlns="http://www.w3.org/2000/svg" xmlns:xlink="http://www.w3.org/1999/xlink" x="0px" y="0px"
	 viewBox="0 0 18 18" style="enable-background:new 0 0 18 18;" xml:space="preserve">
<style type="text/css">
	.st0{fill:#A8A8A8;}
</style>
<path class="st0" d="M10.273,9l7.464-7.464c0.352-0.352,0.352-0.921,0-1.273c-0.352-0.352-0.921-0.352-1.273,0L9,7.727L1.536,0.264
	c-0.352-0.352-0.921-0.352-1.273,0s-0.352,0.921,0,1.273L7.727,9l-7.464,7.464c-0.352,0.352-0.352,0.921,0,1.273
	C0.439,17.912,0.67,18,0.9,18s0.461-0.088,0.636-0.264L9,10.273l7.464,7.464C16.639,17.912,16.87,18,17.1,18
	c0.23,0,0.461-0.088,0.636-0.264c0.352-0.352,0.352-0.921,0-1.273L10.273,9z"/>
</svg>
