<?xml version="1.0" encoding="utf-8"?>
<!-- Generator: Adobe Illustrator 24.0.3, SVG Export Plug-In . SVG Version: 6.00 Build 0)  -->
<svg version="1.1" id="Calque_1" xmlns="http://www.w3.org/2000/svg" xmlns:xlink="http://www.w3.org/1999/xlink" x="0px" y="0px"
	 viewBox="0 0 20 20" style="enable-background:new 0 0 20 20;" xml:space="preserve">
<style type="text/css">
	.st0{fill:#E6E6E6;}
	.st1{fill:#A8A8A8;}
</style>
<circle id="Ellipse_277" class="st0" cx="10" cy="10" r="10"/>
<g id="Groupe_552" transform="translate(-10.52 -5.68)">
	<path id="Tracé_607" class="st1" d="M21.273,10.68c0.601-0.008,1.095,0.472,1.103,1.073c0.008,0.601-0.472,1.095-1.073,1.103
		c-0.601,0.008-1.095-0.472-1.103-1.073c0-0.005,0-0.011,0-0.016C20.196,11.171,20.676,10.684,21.273,10.68
		C21.273,10.68,21.273,10.68,21.273,10.68z"/>
	<path id="Tracé_608" class="st1" d="M22.234,20.301c-0.548,0.426-1.293,0.495-1.91,0.177c-0.238-0.127-0.433-0.32-0.563-0.556
		c-0.217-0.412-0.295-0.884-0.222-1.344l0.106-0.853l0.276-2.224l-0.751,0.017c-0.353,0.006-0.644-0.276-0.65-0.63
		c0,0,0-0.001,0-0.001c-0.007-0.268,0.152-0.512,0.4-0.614l1.925-0.769c0.455-0.18,0.971,0.043,1.151,0.498
		c0.002,0.004,0.003,0.008,0.005,0.012c0.067,0.169,0.081,0.355,0.04,0.532l-0.025,0.116l-0.753,3.352l-0.188,0.838
		c-0.018,0.073-0.031,0.147-0.04,0.221c-0.02,0.377,0.509,0.094,0.509,0.094c0.314-0.175,0.71-0.063,0.886,0.251
		c0.002,0.004,0.004,0.007,0.006,0.011C22.599,19.729,22.512,20.103,22.234,20.301z"/>
</g>
</svg>
