<?xml version="1.0" encoding="utf-8"?>
<!-- Generator: Adobe Illustrator 24.0.3, SVG Export Plug-In . SVG Version: 6.00 Build 0)  -->
<svg version="1.1" id="Calque_1" xmlns="http://www.w3.org/2000/svg" xmlns:xlink="http://www.w3.org/1999/xlink" x="0px" y="0px"
	 viewBox="0 0 32 32" style="enable-background:new 0 0 32 32;" xml:space="preserve">
<style type="text/css">
	.st0{fill:#FFFFFF;}
	.st1{fill:#E6E6E6;}
</style>
<circle class="st0" cx="16" cy="16" r="16"/>
<path class="st1" d="M11.319,15.42c0.055-0.054,0.159-0.146,0.159-0.146l6.054-5.976c0.345-0.34,0.903-0.34,1.248,0
	c0.345,0.34,0.345,0.892,0,1.232l-5.585,5.513l5.585,5.513c0.345,0.34,0.345,0.892,0,1.232c-0.172,0.17-0.398,0.255-0.624,0.255
	s-0.452-0.085-0.624-0.255l-6.054-5.976c0,0-0.095-0.082-0.15-0.136c-0.181-0.178-0.297-0.399-0.289-0.632
	C11.031,15.809,11.138,15.598,11.319,15.42z"/>
</svg>
