<?xml version="1.0" encoding="utf-8"?>
<!-- Generator: Adobe Illustrator 24.0.3, SVG Export Plug-In . SVG Version: 6.00 Build 0)  -->
<svg version="1.1" id="Calque_1" xmlns="http://www.w3.org/2000/svg" xmlns:xlink="http://www.w3.org/1999/xlink" x="0px" y="0px"
	 viewBox="0 0 20 20" style="enable-background:new 0 0 20 20;" xml:space="preserve">
<style type="text/css">
	.st0{fill-rule:evenodd;clip-rule:evenodd;fill:#A8A8A8;}
</style>
<path id="Tracé_601" class="st0" d="M6.571,2.124L6.571,2.124v1.127h6.857V2.124H6.571z M3.141,4.375H1.999V3.25h3.429V2.124
	C5.433,1.499,5.943,0.996,6.567,1h6.865c0.625-0.003,1.134,0.499,1.139,1.124V3.25h3.429v1.125h-1.142v0.047l-0.547,12.936
	c-0.047,0.922-0.81,1.645-1.733,1.642H5.428c-0.923,0.003-1.687-0.72-1.733-1.642L3.148,4.422V4.375H3.141z M4.285,4.375
	l0.547,12.937c0.019,0.313,0.277,0.559,0.591,0.563h9.148c0.314-0.004,0.572-0.25,0.591-0.563l0.547-12.937H4.285z M11.718,6.625v9
	h1.143v-9H11.718z M9.427,6.625v9h1.144v-9H9.427z M7.137,6.634v9H8.28v-9H7.137z"/>
</svg>
