<?xml version="1.0" encoding="utf-8"?>
<!-- Generator: Adobe Illustrator 24.0.3, SVG Export Plug-In . SVG Version: 6.00 Build 0)  -->
<svg version="1.1" id="Calque_1" xmlns="http://www.w3.org/2000/svg" xmlns:xlink="http://www.w3.org/1999/xlink" x="0px" y="0px"
	 viewBox="0 0 40 40" style="enable-background:new 0 0 40 40;" xml:space="preserve">
<style type="text/css">
	.st0{fill:#FFFFFF;}
	.st1{fill:#004161;}
</style>
<path class="st0" d="M20,39.5c-2.633,0-5.186-0.516-7.59-1.532c-2.322-0.982-4.407-2.388-6.198-4.179
	c-1.791-1.791-3.197-3.876-4.179-6.198C1.016,25.186,0.5,22.633,0.5,20s0.516-5.186,1.532-7.59c0.982-2.322,2.388-4.407,4.179-6.198
	s3.876-3.197,6.198-4.179C14.814,1.016,17.367,0.5,20,0.5s5.186,0.516,7.59,1.532c2.322,0.982,4.407,2.388,6.198,4.179
	c1.791,1.791,3.197,3.876,4.179,6.198C38.984,14.814,39.5,17.367,39.5,20s-0.516,5.186-1.532,7.59
	c-0.982,2.322-2.388,4.407-4.179,6.198c-1.791,1.791-3.876,3.197-6.198,4.179C25.186,38.984,22.633,39.5,20,39.5z"/>
<path class="st1" d="M20,1c-2.565,0-5.054,0.502-7.395,1.493C10.342,3.45,8.31,4.82,6.565,6.565C4.82,8.31,3.45,10.342,2.493,12.605
	C1.502,14.946,1,17.435,1,20s0.502,5.054,1.493,7.395c0.957,2.262,2.327,4.294,4.072,6.04c1.745,1.745,3.777,3.115,6.04,4.072
	C14.946,38.498,17.435,39,20,39s5.054-0.502,7.395-1.493c2.262-0.957,4.294-2.327,6.04-4.072c1.745-1.745,3.115-3.777,4.072-6.04
	C38.498,25.054,39,22.565,39,20s-0.502-5.054-1.493-7.395c-0.957-2.262-2.327-4.294-4.072-6.04c-1.745-1.745-3.777-3.115-6.04-4.072
	C25.054,1.502,22.565,1,20,1 M20,0c11.046,0,20,8.954,20,20s-8.954,20-20,20S0,31.046,0,20S8.954,0,20,0z"/>
<path id="Soustraction_11" class="st1" d="M19.891,33.098L19.891,33.098l-7.229-7.229c-1.922-1.913-2.998-4.516-2.989-7.228
	c-0.009-2.712,1.067-5.315,2.989-7.229c1.914-1.923,4.517-2.999,7.23-2.99c2.712-0.009,5.315,1.068,7.229,2.99
	c1.922,1.914,2.998,4.517,2.989,7.229c0.009,2.712-1.067,5.315-2.989,7.228l-7.228,7.229H19.891z M19.849,15.562
	c-1.793,0.025-3.235,1.483-3.24,3.276c0.002,1.808,1.467,3.273,3.275,3.275c1.808-0.004,3.272-1.471,3.273-3.279
	c0-0.872-0.35-1.707-0.971-2.318c-0.611-0.609-1.438-0.952-2.3-0.955L19.849,15.562z"/>
<path id="Soustraction_9" class="st0" d="M19.892,31.623L19.892,31.623l-6.522-6.52c-1.735-1.726-2.707-4.075-2.7-6.522
	c-0.007-2.447,0.965-4.796,2.7-6.522c1.726-1.735,4.075-2.707,6.522-2.7c2.447-0.007,4.794,0.965,6.519,2.7
	c3.595,3.604,3.595,9.439,0,13.043L19.892,31.623L19.892,31.623z M19.849,15.563c-1.793,0.024-3.236,1.482-3.241,3.275
	c0.002,1.808,1.467,3.273,3.275,3.275c1.809-0.003,3.274-1.469,3.275-3.278c-0.001-0.871-0.351-1.705-0.972-2.316
	c-0.611-0.609-1.438-0.952-2.3-0.955L19.849,15.563z"/>
<path id="Soustraction_8" class="st1" d="M19.884,23.118c-2.36-0.003-4.272-1.915-4.275-4.275c0.008-2.342,1.893-4.246,4.235-4.276
	h0.046c1.125,0.004,2.203,0.452,3,1.245c0.81,0.799,1.265,1.889,1.265,3.026C24.154,21.197,22.243,23.111,19.884,23.118z
	 M19.849,15.567c-1.793,0.025-3.235,1.483-3.24,3.276c0.002,1.808,1.467,3.273,3.275,3.275c1.809-0.004,3.273-1.471,3.274-3.28
	c0-0.871-0.35-1.706-0.971-2.317c-0.611-0.609-1.438-0.952-2.3-0.955L19.849,15.567z"/>
</svg>
