<?xml version="1.0" encoding="utf-8"?>
<!-- Generator: Adobe Illustrator 24.0.3, SVG Export Plug-In . SVG Version: 6.00 Build 0)  -->
<svg version="1.1" id="Calque_1" xmlns="http://www.w3.org/2000/svg" xmlns:xlink="http://www.w3.org/1999/xlink" x="0px" y="0px"
	 viewBox="0 0 40 40" style="enable-background:new 0 0 40 40;" xml:space="preserve">
<style type="text/css">
	.st0{fill:#FFFFFF;}
	.st1{fill:#004161;}
</style>
<path class="st0" d="M20,39.5c-2.633,0-5.186-0.516-7.59-1.532c-2.322-0.982-4.407-2.388-6.198-4.179
	c-1.791-1.791-3.197-3.876-4.179-6.198C1.016,25.186,0.5,22.633,0.5,20s0.516-5.186,1.532-7.59c0.982-2.322,2.388-4.407,4.179-6.198
	s3.876-3.197,6.198-4.179C14.814,1.016,17.367,0.5,20,0.5s5.186,0.516,7.59,1.532c2.322,0.982,4.407,2.388,6.198,4.179
	c1.791,1.791,3.197,3.876,4.179,6.198C38.984,14.814,39.5,17.367,39.5,20s-0.516,5.186-1.532,7.59
	c-0.982,2.322-2.388,4.407-4.179,6.198c-1.791,1.791-3.876,3.197-6.198,4.179C25.186,38.984,22.633,39.5,20,39.5z"/>
<path class="st1" d="M20,1c-2.565,0-5.054,0.502-7.395,1.493C10.342,3.45,8.31,4.82,6.565,6.565C4.82,8.31,3.45,10.342,2.493,12.605
	C1.502,14.946,1,17.435,1,20s0.502,5.054,1.493,7.395c0.957,2.262,2.327,4.294,4.072,6.04c1.745,1.745,3.777,3.115,6.04,4.072
	C14.946,38.498,17.435,39,20,39s5.054-0.502,7.395-1.493c2.262-0.957,4.294-2.327,6.04-4.072c1.745-1.745,3.115-3.777,4.072-6.04
	C38.498,25.054,39,22.565,39,20s-0.502-5.054-1.493-7.395c-0.957-2.262-2.327-4.294-4.072-6.04c-1.745-1.745-3.777-3.115-6.04-4.072
	C25.054,1.502,22.565,1,20,1 M20,0c11.046,0,20,8.954,20,20s-8.954,20-20,20S0,31.046,0,20S8.954,0,20,0z"/>
<path id="Tracé_619" class="st1" d="M25.421,10.639l-5.011,5L14.784,10L10,14.795l5.649,5.616l-3.439,3.447l-1.572,5.526
	l5.513-1.575l3.44-3.447L25.216,30L30,25.205l-5.649-5.616l4.989-5.023L25.421,10.639z M28.063,14.566l-1.617,1.621l-2.665-2.648
	l1.619-1.621L28.063,14.566z M13.257,24.11l9.886-9.932l2.665,2.671L15.9,26.758L13.257,24.11z M11.3,14.772l3.485-3.493
	l1.162,1.164l-1.665,1.667l0.638,0.639l1.663-1.667l2.1,2.1l-1.029,1.028l0.638,0.639l1.025-1.027l0.456,0.457l-3.485,3.493
	L11.3,14.772z M12.825,24.977l2.21,2.215L11.96,28.06L12.825,24.977z M24.169,20.662l-1.663,1.689l0.638,0.639l1.663-1.667l2.1,2.1
	l-1.025,1.027l0.638,0.639l1.025-1.027l1.155,1.166l-3.485,3.493l-4.989-5l3.485-3.493L24.169,20.662z"/>
<polygon class="st0" points="12.825,24.977 15.035,27.192 11.96,28.06 "/>
<polygon class="st0" points="13.257,24.11 23.143,14.178 25.808,16.849 15.9,26.758 "/>
<polygon class="st0" points="28.063,14.566 26.446,16.187 23.781,13.539 25.4,11.918 "/>
<polygon class="st0" points="11.3,14.772 14.785,11.279 15.947,12.443 14.282,14.11 14.92,14.749 16.583,13.082 18.683,15.182 
	17.654,16.21 18.292,16.849 19.317,15.822 19.773,16.279 16.288,19.772 "/>
<polygon class="st0" points="24.169,20.662 22.506,22.351 23.144,22.99 24.807,21.323 26.907,23.423 25.882,24.45 26.52,25.089 
	27.545,24.062 28.7,25.228 25.215,28.721 20.226,23.721 23.711,20.228 "/>
</svg>
