<?xml version="1.0" encoding="utf-8"?>
<!-- Generator: Adobe Illustrator 24.0.3, SVG Export Plug-In . SVG Version: 6.00 Build 0)  -->
<svg version="1.1" id="Calque_1" xmlns="http://www.w3.org/2000/svg" xmlns:xlink="http://www.w3.org/1999/xlink" x="0px" y="0px"
	 viewBox="0 0 40 40" style="enable-background:new 0 0 40 40;" xml:space="preserve">
<style type="text/css">
	.st0{opacity:0.1;fill:#65C4DB;}
	.st1{fill:#004161;}
</style>
<circle class="st0" cx="20" cy="20" r="20"/>
<path id="Soustraction_6" class="st1" d="M25.986,28.451H14.381c-1.036,0-2.024-0.436-2.724-1.2
	c-0.481-0.523-0.685-1.244-0.548-1.942c0.15-0.742,0.638-1.37,1.319-1.7c0.579-0.281,0.949-0.863,0.958-1.506v-6.106
	c0.007-1.303,0.471-2.562,1.311-3.558c0.883-1.058,2.07-1.819,3.4-2.181c0.32-0.759,1.063-1.253,1.887-1.253
	c0.785-0.005,1.503,0.44,1.846,1.146c1.427,0.31,2.721,1.059,3.7,2.143c0.917,1.016,1.433,2.331,1.449,3.7v6.122
	c0.011,0.639,0.383,1.217,0.961,1.49c0.679,0.331,1.166,0.959,1.315,1.7c0.136,0.697-0.066,1.417-0.546,1.94
	C28.011,28.011,27.023,28.449,25.986,28.451z M19.986,9.907c-0.515,0.003-0.965,0.349-1.1,0.846l-0.071,0.255l-0.258,0.064
	c-2.382,0.467-4.141,2.497-4.262,4.922v6.113c-0.01,0.987-0.578,1.884-1.467,2.314c-0.426,0.202-0.732,0.594-0.826,1.056
	c-0.082,0.417,0.04,0.848,0.328,1.161c0.527,0.578,1.272,0.907,2.054,0.908H25.99c0.783,0,1.529-0.33,2.056-0.908
	c0.288-0.313,0.409-0.744,0.328-1.161c-0.094-0.461-0.399-0.852-0.823-1.056c-0.887-0.425-1.457-1.316-1.47-2.3v-6.129
	c-0.155-2.567-2.105-4.665-4.654-5.006l-0.262-0.048l-0.089-0.255c-0.157-0.468-0.598-0.781-1.092-0.776H19.986z"/>
<path id="Soustraction_7" class="st1" d="M20.249,31.812c-1.812-0.059-3.269-1.51-3.336-3.322l-0.044-0.493h6.763l-0.044,0.493
	C23.474,30.282,22.042,31.707,20.249,31.812z M17.907,28.449L17.907,28.449c-0.035,1.322,1.008,2.422,2.33,2.457
	c0.004,0,0.009,0,0.013,0c1.31-0.065,2.337-1.146,2.337-2.457h-2.337H17.907z"/>
<path id="Tracé_561" class="st1" d="M30.361,23.745c-0.246,0.001-0.446-0.199-0.447-0.445c0-0.001,0-0.001,0-0.002
	c0-0.644-0.763-0.742-0.8-0.747c-0.244-0.028-0.42-0.248-0.392-0.492c0-0.003,0.001-0.005,0.001-0.008
	c0.034-0.244,0.255-0.417,0.5-0.391c0.868,0.059,1.552,0.764,1.584,1.634c0.003,0.246-0.195,0.448-0.441,0.451
	C30.364,23.745,30.363,23.745,30.361,23.745z"/>
<path id="Tracé_562" class="st1" d="M31.551,22.351c-0.246,0.001-0.446-0.199-0.447-0.445c0-0.001,0-0.001,0-0.002
	c0-0.644-0.765-0.743-0.8-0.747c-0.244-0.038-0.41-0.267-0.372-0.511c0.036-0.232,0.246-0.396,0.479-0.376
	c0.868,0.061,1.551,0.765,1.585,1.634C31.997,22.15,31.797,22.35,31.551,22.351L31.551,22.351z"/>
<path id="Tracé_563" class="st1" d="M9.639,23.399C9.393,23.4,9.193,23.2,9.192,22.954c0-0.001,0-0.001,0-0.002
	c0.032-0.87,0.717-1.575,1.586-1.633c0.246-0.021,0.462,0.162,0.483,0.408c0.02,0.234-0.144,0.443-0.376,0.479
	c-0.086,0.011-0.8,0.125-0.8,0.746c0.001,0.246-0.199,0.446-0.445,0.447C9.64,23.399,9.639,23.399,9.639,23.399z"/>
<path id="Tracé_564" class="st1" d="M8.447,22.003C8.2,22.003,8,21.803,8,21.556c0.035-0.869,0.717-1.573,1.584-1.634
	c0.246-0.023,0.464,0.157,0.487,0.403c0.023,0.236-0.144,0.449-0.378,0.484c-0.085,0.012-0.8,0.126-0.8,0.747
	c0.001,0.246-0.199,0.446-0.445,0.447C8.448,22.003,8.447,22.003,8.447,22.003z"/>
</svg>
