<?xml version="1.0" encoding="utf-8"?>
<!-- Generator: Adobe Illustrator 24.0.3, SVG Export Plug-In . SVG Version: 6.00 Build 0)  -->
<svg version="1.1" id="Calque_1" xmlns="http://www.w3.org/2000/svg" xmlns:xlink="http://www.w3.org/1999/xlink" x="0px" y="0px"
	 viewBox="0 0 40 40" style="enable-background:new 0 0 40 40;" xml:space="preserve">
<style type="text/css">
	.st0{fill:#FFFFFF;}
	.st1{fill:#004161;}
</style>
<path class="st0" d="M20,39.5c-2.633,0-5.186-0.516-7.59-1.532c-2.322-0.982-4.407-2.388-6.198-4.179
	c-1.791-1.791-3.197-3.876-4.179-6.198C1.016,25.186,0.5,22.633,0.5,20s0.516-5.186,1.532-7.59c0.982-2.322,2.388-4.407,4.179-6.198
	s3.876-3.197,6.198-4.179C14.814,1.016,17.367,0.5,20,0.5s5.186,0.516,7.59,1.532c2.322,0.982,4.407,2.388,6.198,4.179
	c1.791,1.791,3.197,3.876,4.179,6.198C38.984,14.814,39.5,17.367,39.5,20s-0.516,5.186-1.532,7.59
	c-0.982,2.322-2.388,4.407-4.179,6.198c-1.791,1.791-3.876,3.197-6.198,4.179C25.186,38.984,22.633,39.5,20,39.5z"/>
<path class="st1" d="M20,1c-2.565,0-5.054,0.502-7.395,1.493C10.342,3.45,8.31,4.82,6.565,6.565C4.82,8.31,3.45,10.342,2.493,12.605
	C1.502,14.946,1,17.435,1,20s0.502,5.054,1.493,7.395c0.957,2.262,2.327,4.294,4.072,6.04c1.745,1.745,3.777,3.115,6.04,4.072
	C14.946,38.498,17.435,39,20,39s5.054-0.502,7.395-1.493c2.262-0.957,4.294-2.327,6.04-4.072c1.745-1.745,3.115-3.777,4.072-6.04
	C38.498,25.054,39,22.565,39,20s-0.502-5.054-1.493-7.395c-0.957-2.262-2.327-4.294-4.072-6.04c-1.745-1.745-3.777-3.115-6.04-4.072
	C25.054,1.502,22.565,1,20,1 M20,0c11.046,0,20,8.954,20,20s-8.954,20-20,20S0,31.046,0,20S8.954,0,20,0z"/>
<path id="Tracé_559" class="st1" d="M25.988,28.184h-11.6c-1.036,0-2.025-0.435-2.725-1.2c-0.481-0.523-0.684-1.244-0.548-1.942
	c0.15-0.742,0.638-1.371,1.319-1.7c0.579-0.28,0.95-0.864,0.959-1.507v-6.106c0.11-2.752,2.034-5.096,4.712-5.741
	c0.441-1.044,1.645-1.533,2.689-1.091c0.455,0.192,0.825,0.542,1.043,0.986c2.872,0.508,5.01,2.934,5.152,5.847v6.122
	c0.013,0.638,0.385,1.215,0.961,1.49c0.68,0.33,1.167,0.959,1.316,1.7c0.136,0.697-0.067,1.418-0.547,1.941
	C28.017,27.748,27.026,28.184,25.988,28.184z"/>
<path id="Tracé_560" class="st1" d="M20.249,31.545c-1.812-0.059-3.269-1.51-3.336-3.322l-0.044-0.494h6.763l-0.044,0.494
	C23.474,30.015,22.041,31.44,20.249,31.545z"/>
<path id="Tracé_561" class="st1" d="M30.363,23.478c-0.246,0.001-0.446-0.199-0.447-0.445c0-0.001,0-0.001,0-0.002
	c0-0.644-0.763-0.742-0.8-0.747c-0.244-0.028-0.42-0.248-0.392-0.492c0-0.003,0.001-0.005,0.001-0.008
	c0.034-0.244,0.255-0.417,0.5-0.391c0.868,0.059,1.552,0.764,1.584,1.634c0.003,0.246-0.195,0.448-0.441,0.451
	C30.366,23.478,30.364,23.478,30.363,23.478z"/>
<path id="Tracé_562" class="st1" d="M31.553,22.084c-0.246,0.001-0.446-0.199-0.447-0.445c0-0.001,0-0.001,0-0.002
	c0-0.644-0.765-0.743-0.8-0.747c-0.244-0.038-0.41-0.267-0.372-0.511c0.036-0.232,0.246-0.396,0.479-0.376
	c0.868,0.061,1.551,0.765,1.585,1.634C31.998,21.883,31.799,22.083,31.553,22.084L31.553,22.084z"/>
<path id="Tracé_563" class="st1" d="M9.641,23.132c-0.246,0.001-0.446-0.199-0.447-0.445c0-0.001,0-0.001,0-0.002
	c0.032-0.87,0.717-1.575,1.586-1.633c0.246-0.021,0.462,0.162,0.483,0.408c0.02,0.234-0.144,0.443-0.376,0.479
	c-0.086,0.011-0.8,0.125-0.8,0.746c0.001,0.246-0.199,0.446-0.445,0.447C9.641,23.132,9.641,23.132,9.641,23.132z"/>
<path id="Tracé_564" class="st1" d="M8.449,21.736c-0.247,0-0.447-0.2-0.447-0.447c0.035-0.869,0.717-1.573,1.584-1.634
	c0.246-0.023,0.464,0.157,0.487,0.403c0.023,0.236-0.144,0.449-0.378,0.484c-0.085,0.012-0.8,0.126-0.8,0.747
	c0.001,0.246-0.199,0.446-0.445,0.447C8.449,21.736,8.449,21.736,8.449,21.736z"/>
<path id="Tracé_565" class="st0" d="M19.987,9.639c-0.514,0.005-0.963,0.349-1.1,0.845l-0.071,0.255l-0.257,0.064
	c-2.382,0.469-4.139,2.498-4.262,4.923v6.113c-0.01,0.988-0.579,1.884-1.468,2.314c-0.426,0.203-0.731,0.594-0.825,1.056
	c-0.082,0.417,0.04,0.848,0.327,1.161c0.528,0.577,1.274,0.906,2.056,0.907h11.6c0.783-0.001,1.529-0.33,2.057-0.908
	c0.287-0.313,0.408-0.743,0.326-1.16c-0.093-0.462-0.398-0.853-0.823-1.056c-0.887-0.425-1.457-1.316-1.471-2.3v-6.129
	c-0.155-2.566-2.104-4.664-4.652-5.006l-0.262-0.049l-0.09-0.254C20.915,9.95,20.478,9.637,19.987,9.639z"/>
<path id="Tracé_566" class="st0" d="M17.908,28.183c-0.042,1.314,0.989,2.413,2.302,2.455c0.013,0,0.026,0.001,0.04,0.001
	c1.309-0.065,2.338-1.145,2.338-2.456h-2.337H17.908z"/>
</svg>
